# xmcd
#
# Track frame offsets:
#	150
#	16639
#	34705
#	50351
#	68555
#	87432
#	102517
#	115322
#	131243
#	147778
#	162922
#
# Disc length: 2361 seconds
#
# Revision: 1
# Processed by: cddbd v1.5.2PL0 Copyright (c) Steve Scherf et al.
# Submitted via: audiograbber 1.83.01
#
DISCID=8e09370b
DTITLE=Dion Pride - Dion Pride
DYEAR=2007
DGENRE=Country
TTITLE0=Leave Him Out Of This
TTITLE1=I Won't Lie
TTITLE2=Rhinestone Cowboy
TTITLE3=Only More
TTITLE4=Wherever You Are
TTITLE5=Moonlight Lady
TTITLE6=Fourteen Carat Mind
TTITLE7=Drive Me Home
TTITLE8=She's It
TTITLE9=Rose Colored Glasses
TTITLE10=Only Daddy That'll Walk The Line
EXTD=
EXTT0=
EXTT1=
EXTT2=
EXTT3=
EXTT4=
EXTT5=
EXTT6=
EXTT7=
EXTT8=
EXTT9=
EXTT10=
PLAYORDER=
